<svg width="12" height="12" viewBox="0 0 12 12" fill="none" xmlns="http://www.w3.org/2000/svg">
<path d="M11.3537 9.35378L9.35365 11.3538C9.25983 11.4476 9.13259 11.5003 8.9999 11.5003C8.86722 11.5003 8.73997 11.4476 8.64615 11.3538C8.55233 11.26 8.49963 11.1327 8.49963 11C8.49963 10.8674 8.55233 10.7401 8.64615 10.6463L9.79303 9.50003H0.999905C0.867297 9.50003 0.74012 9.44736 0.646352 9.35359C0.552584 9.25982 0.499905 9.13264 0.499905 9.00003C0.499905 8.86743 0.552584 8.74025 0.646352 8.64648C0.74012 8.55271 0.867297 8.50003 0.999905 8.50003H9.79303L8.64615 7.35378C8.55233 7.25996 8.49963 7.13272 8.49963 7.00003C8.49963 6.86735 8.55233 6.7401 8.64615 6.64628C8.73997 6.55246 8.86722 6.49976 8.9999 6.49976C9.13259 6.49976 9.25983 6.55246 9.35365 6.64628L11.3537 8.64628C11.4001 8.69272 11.437 8.74786 11.4622 8.80856C11.4873 8.86926 11.5003 8.93433 11.5003 9.00003C11.5003 9.06574 11.4873 9.1308 11.4622 9.1915C11.437 9.2522 11.4001 9.30735 11.3537 9.35378ZM2.64615 5.35378C2.73998 5.4476 2.86722 5.50031 2.99991 5.50031C3.13259 5.50031 3.25984 5.4476 3.35366 5.35378C3.44748 5.25996 3.50018 5.13272 3.50018 5.00003C3.50018 4.86735 3.44748 4.7401 3.35366 4.64628L2.20678 3.50003H10.9999C11.1325 3.50003 11.2597 3.44736 11.3535 3.35359C11.4472 3.25982 11.4999 3.13264 11.4999 3.00003C11.4999 2.86743 11.4472 2.74025 11.3535 2.64648C11.2597 2.55271 11.1325 2.50003 10.9999 2.50003H2.20678L3.35366 1.35378C3.44748 1.25996 3.50018 1.13272 3.50018 1.00003C3.50018 0.867352 3.44748 0.740104 3.35365 0.646284C3.25983 0.552464 3.13259 0.499756 2.99991 0.499756C2.86722 0.499756 2.73998 0.552464 2.64615 0.646284L0.646155 2.64628C0.599667 2.69272 0.562787 2.74786 0.537625 2.80856C0.512463 2.86926 0.499512 2.93433 0.499512 3.00003C0.499512 3.06574 0.512463 3.13081 0.537625 3.1915C0.562787 3.2522 0.599667 3.30735 0.646155 3.35378L2.64615 5.35378Z" fill="white"/>
</svg>
