<svg width="36" height="29" viewBox="0 0 36 29" fill="none" xmlns="http://www.w3.org/2000/svg">
<path d="M34.6194 0.508057H1.38864C1.02142 0.508057 0.669238 0.653936 0.409573 0.913601C0.149907 1.17327 0.00402832 1.52545 0.00402832 1.89267V25.4311C0.00402832 26.1656 0.295786 26.8699 0.815117 27.3893C1.33445 27.9086 2.03881 28.2004 2.77326 28.2004H33.2348C33.9692 28.2004 34.6736 27.9086 35.1929 27.3893C35.7123 26.8699 36.004 26.1656 36.004 25.4311V1.89267C36.004 1.52545 35.8581 1.17327 35.5985 0.913601C35.3388 0.653936 34.9866 0.508057 34.6194 0.508057ZM31.0592 3.27729L18.004 15.2456L4.94884 3.27729H31.0592ZM33.2348 25.4311H2.77326V5.04094L17.0677 18.1446C17.3231 18.3791 17.6573 18.5092 18.004 18.5092C18.3508 18.5092 18.6849 18.3791 18.9404 18.1446L33.2348 5.04094V25.4311Z" fill="white"/>
</svg>
