<svg width="18" height="20" viewBox="0 0 18 20" fill="none" xmlns="http://www.w3.org/2000/svg">
<path d="M17.8824 18.5567L11.4788 8.49311L17.7975 1.54227C17.9404 1.38118 18.014 1.17026 18.0025 0.955231C17.9909 0.740202 17.895 0.538399 17.7357 0.393572C17.5763 0.248746 17.3663 0.172569 17.1511 0.181559C16.936 0.190548 16.7331 0.283978 16.5863 0.441593L10.5674 7.06203L6.42552 0.553093C6.35166 0.436841 6.24965 0.341111 6.12895 0.274771C6.00825 0.20843 5.87276 0.173627 5.73503 0.173584H0.824947C0.678218 0.173513 0.534169 0.212893 0.407884 0.2876C0.281598 0.362308 0.177721 0.469595 0.10713 0.598227C0.0365395 0.726859 0.00183163 0.872104 0.00664078 1.01875C0.0114499 1.1654 0.0555992 1.30806 0.134466 1.43179L6.53804 11.4944L0.21937 18.4504C0.145582 18.5296 0.08826 18.6227 0.0507261 18.7243C0.0131923 18.8259 -0.00380724 18.9339 0.000713355 19.0421C0.00523395 19.1503 0.0311848 19.2565 0.0770612 19.3546C0.122938 19.4527 0.187827 19.5408 0.267969 19.6136C0.348112 19.6864 0.441913 19.7426 0.543936 19.7789C0.645958 19.8152 0.754174 19.8309 0.86231 19.8251C0.970446 19.8193 1.07635 19.7921 1.17389 19.745C1.27143 19.698 1.35866 19.632 1.43052 19.551L7.44947 12.9306L11.5913 19.4395C11.6658 19.5548 11.7681 19.6496 11.8887 19.715C12.0094 19.7804 12.1446 19.8144 12.2818 19.8139H17.1919C17.3385 19.8139 17.4823 19.7745 17.6085 19.6998C17.7346 19.6252 17.8384 19.518 17.9089 19.3895C17.9795 19.2611 18.0143 19.116 18.0096 18.9695C18.0049 18.823 17.961 18.6805 17.8824 18.5567ZM12.7309 18.1772L2.31536 1.81028H5.28187L15.7015 18.1772H12.7309Z" fill="white"/>
</svg>
